<svg width="700" height="499" viewBox="0 0 700 499" fill="none" xmlns="http://www.w3.org/2000/svg">
<path d="M347.492 0H191.532C179.298 0.0138431 167.569 4.87998 158.918 13.5308C150.267 22.1817 145.401 33.9108 145.387 46.1449V60.2418C145.067 60.1538 144.731 60.1413 144.405 60.2054C144.079 60.2695 143.773 60.4085 143.51 60.6113C143.247 60.8141 143.035 61.0753 142.891 61.3741C142.746 61.673 142.673 62.0014 142.677 62.3333V73.1739C142.673 73.5059 142.746 73.8343 142.891 74.1331C143.035 74.432 143.247 74.6931 143.51 74.896C143.773 75.0988 144.079 75.2378 144.405 75.3019C144.731 75.366 145.067 75.3535 145.387 75.2654V91.6796C145.067 91.5914 144.731 91.5789 144.405 91.643C144.079 91.7071 143.773 91.8461 143.51 92.0489C143.247 92.2517 143.035 92.5129 142.891 92.8118C142.746 93.1106 142.673 93.439 142.677 93.771V120.872C142.673 121.204 142.746 121.533 142.891 121.832C143.035 122.131 143.247 122.392 143.51 122.595C143.773 122.797 144.079 122.936 144.405 123C144.731 123.065 145.067 123.052 145.387 122.964V132.874C145.067 132.786 144.731 132.773 144.405 132.837C144.079 132.901 143.773 133.04 143.51 133.243C143.247 133.446 143.035 133.707 142.891 134.006C142.746 134.305 142.673 134.633 142.677 134.965V162.067C142.673 162.399 142.746 162.727 142.891 163.026C143.035 163.325 143.247 163.586 143.51 163.789C143.773 163.992 144.079 164.131 144.405 164.195C144.731 164.259 145.067 164.246 145.387 164.158V450.353C145.401 462.587 150.267 474.317 158.918 482.967C167.569 491.618 179.298 496.484 191.532 496.498H347.492C359.726 496.484 371.455 491.618 380.106 482.967C388.757 474.317 393.623 462.587 393.637 450.353V46.1449C393.623 33.9108 388.757 22.1817 380.106 13.5308C371.455 4.87998 359.726 0.0138431 347.492 0V0ZM383.88 450.353C383.87 460.001 380.032 469.25 373.21 476.072C366.389 482.894 357.139 486.731 347.492 486.742H191.532C181.885 486.731 172.636 482.894 165.814 476.072C158.992 469.25 155.155 460.001 155.144 450.353V46.1449C155.155 36.4975 158.992 27.2483 165.814 20.4265C172.636 13.6047 181.885 9.76746 191.532 9.75652H347.492C357.139 9.76745 366.389 13.6047 373.21 20.4265C380.032 27.2483 383.87 36.4975 383.88 46.1449V450.353Z" fill="#3F3D56"/>
<path d="M347.492 492.162H191.532C180.448 492.149 169.821 487.74 161.983 479.902C154.145 472.064 149.736 461.438 149.724 450.353V46.1449C149.736 35.0604 154.145 24.4335 161.983 16.5956C169.821 8.75764 180.448 4.34876 191.532 4.33618H347.492C358.576 4.34876 369.203 8.75763 377.041 16.5956C384.879 24.4335 389.288 35.0604 389.301 46.1449V450.353C389.288 461.438 384.879 472.064 377.041 479.902C369.203 487.74 358.576 492.149 347.492 492.162V492.162Z" fill="#E6E6E6"/>
<path d="M351.346 485.658H187.678C180.202 485.65 173.035 482.676 167.749 477.39C162.462 472.103 159.489 464.936 159.48 457.46V39.0388C159.489 31.5628 162.462 24.3954 167.748 19.109C173.035 13.8227 180.202 10.8491 187.678 10.8406H209.022C210.258 10.842 211.443 11.3335 212.316 12.2073C213.19 13.081 213.682 14.2657 213.683 15.5013C213.687 19.1516 215.139 22.6513 217.72 25.2325C220.301 27.8136 223.801 29.2655 227.451 29.2696H309.405C313.055 29.2655 316.555 27.8136 319.136 25.2325C321.717 22.6513 323.169 19.1516 323.173 15.5013C323.175 14.2656 323.666 13.081 324.54 12.2072C325.413 11.3335 326.598 10.842 327.834 10.8406H351.346C358.822 10.8491 365.989 13.8226 371.276 19.109C376.562 24.3953 379.536 31.5628 379.544 39.0388V457.46C379.536 464.936 376.562 472.103 371.276 477.39C365.989 482.676 358.822 485.65 351.346 485.658V485.658Z" fill="white"/>
<path d="M276.559 20.3261H257.046C256.471 20.3261 255.919 20.0977 255.513 19.6911C255.106 19.2845 254.878 18.733 254.878 18.158C254.878 17.583 255.106 17.0315 255.513 16.6249C255.919 16.2183 256.471 15.9899 257.046 15.9899H276.559C277.134 15.9899 277.685 16.2183 278.092 16.6249C278.498 17.0315 278.727 17.583 278.727 18.158C278.727 18.733 278.498 19.2845 278.092 19.6911C277.685 20.0977 277.134 20.3261 276.559 20.3261V20.3261Z" fill="white"/>
<path d="M290.109 19.7841C290.708 19.7841 291.193 19.2987 291.193 18.7C291.193 18.1013 290.708 17.616 290.109 17.616C289.511 17.616 289.026 18.1013 289.026 18.7C289.026 19.2987 289.511 19.7841 290.109 19.7841Z" fill="white"/>
<path d="M384.817 95.5292H153.992V97.9998H384.817V95.5292Z" fill="#E6E6E6"/>
<path d="M384.817 144.941H153.992V147.411H384.817V144.941Z" fill="#E6E6E6"/>
<path d="M384.817 247.058H153.992V249.529H384.817V247.058Z" fill="#E6E6E6"/>
<path d="M384.817 349.176H153.992V351.646H384.817V349.176Z" fill="#E6E6E6"/>
<path d="M384.817 429.058H153.992V431.528H384.817V429.058Z" fill="#E6E6E6"/>
<path d="M321.623 96.7645H319.152V248.294H321.623V96.7645Z" fill="#E6E6E6"/>
<path d="M206.069 248.249H203.598V430.293H206.069V248.249Z" fill="#E6E6E6"/>
<path d="M379.544 298.185H204.834V300.655H379.544V298.185Z" fill="#E6E6E6"/>
<path d="M321.888 430.293H319.417V485.658H321.888V430.293Z" fill="#E6E6E6"/>
<path d="M319.975 197.011H159.068V199.482H319.975V197.011Z" fill="#E6E6E6"/>
<path d="M192.672 9.27959L190.393 10.2334L226.805 97.2414L229.084 96.2876L192.672 9.27959Z" fill="#E6E6E6"/>
<path d="M304.815 29.2694H302.344V96.7646H304.815V29.2694Z" fill="#E6E6E6"/>
<path d="M368.521 134.235C368.521 156.372 334.296 207.954 324.294 222.556C323.992 222.997 323.587 223.358 323.114 223.608C322.642 223.857 322.115 223.988 321.58 223.988C321.045 223.988 320.519 223.857 320.046 223.608C319.573 223.358 319.168 222.997 318.866 222.556C308.864 207.954 274.639 156.372 274.639 134.235C274.639 121.786 279.585 109.846 288.388 101.043C297.191 92.2395 309.131 87.2939 321.58 87.2939C334.03 87.2939 345.969 92.2395 354.773 101.043C363.576 109.846 368.521 121.786 368.521 134.235Z" fill="#923D41"/>
<path d="M321.58 154.823C334.77 154.823 345.463 144.131 345.463 130.941C345.463 117.751 334.77 107.059 321.58 107.059C308.39 107.059 297.698 117.751 297.698 130.941C297.698 144.131 308.39 154.823 321.58 154.823Z" fill="white"/>
<path d="M320.016 249.004L229.571 429.713L231.78 430.818L322.225 250.11L320.016 249.004Z" fill="#E6E6E6"/>
<path d="M450.272 288.753C451.338 289.327 452.517 289.659 453.726 289.727C454.935 289.796 456.144 289.598 457.268 289.149C458.392 288.699 459.404 288.009 460.232 287.126C461.061 286.243 461.685 285.189 462.062 284.038L491.487 283.53L482.848 270.911L456.231 273.328C454.256 272.823 452.165 273.06 450.353 273.993C448.541 274.927 447.135 276.493 446.4 278.394C445.666 280.295 445.654 282.4 446.368 284.31C447.081 286.219 448.47 287.8 450.272 288.753H450.272Z" fill="#FFB8B8"/>
<path d="M467.936 288.386C467.48 288.386 467.028 288.294 466.609 288.115C466.19 287.936 465.811 287.673 465.496 287.344C465.18 287.014 464.935 286.625 464.774 286.198C464.614 285.771 464.541 285.316 464.561 284.86L465.156 271.368C465.188 270.565 465.507 269.799 466.056 269.211C466.604 268.623 467.345 268.251 468.144 268.162L502.232 264.253L501.089 286.737L468.103 288.381C468.047 288.385 467.991 288.386 467.936 288.386Z" fill="#923D41"/>
<path d="M509.45 473.327L499.853 476.461L483.196 440.934L497.36 436.308L509.45 473.327Z" fill="#FFB8B8"/>
<path d="M514.936 481.83L483.991 491.937L483.863 491.546C483.346 489.964 483.146 488.296 483.274 486.637C483.402 484.978 483.855 483.36 484.608 481.876C485.362 480.392 486.4 479.071 487.663 477.989C488.927 476.906 490.391 476.083 491.973 475.566L491.974 475.566L510.874 469.393L514.936 481.83Z" fill="#2F2E41"/>
<path d="M537.719 488.184L527.622 488.183L522.819 449.24L537.721 449.241L537.719 488.184Z" fill="#FFB8B8"/>
<path d="M540.293 497.97L507.739 497.969V497.557C507.739 495.893 508.066 494.246 508.703 492.708C509.34 491.171 510.273 489.774 511.45 488.598C512.627 487.421 514.023 486.488 515.561 485.851C517.098 485.214 518.746 484.887 520.41 484.887H520.411L540.294 484.887L540.293 497.97Z" fill="#2F2E41"/>
<path d="M522.384 478.706C521.558 478.705 520.762 478.401 520.145 477.853C519.527 477.305 519.132 476.55 519.034 475.731L506.016 366.905L486.962 397.493L509.319 454.627C509.623 455.417 509.621 456.292 509.314 457.08C509.007 457.869 508.417 458.515 507.659 458.891L488.693 468.172C488.26 468.384 487.787 468.5 487.305 468.514C486.824 468.528 486.345 468.438 485.9 468.251C485.456 468.065 485.057 467.785 484.73 467.431C484.403 467.077 484.155 466.657 484.004 466.2L462.986 402.699C461.402 397.92 461.195 392.792 462.389 387.901L475.979 332.131L476.138 332.044L506.773 315.264L506.948 315.328L543.025 328.495L539.249 399.992L541.993 474.199C542.03 475.08 541.719 475.941 541.127 476.595C540.534 477.25 539.708 477.644 538.827 477.694L522.595 478.699C522.524 478.703 522.454 478.706 522.384 478.706Z" fill="#2F2E41"/>
<path d="M502.511 353.323C497.121 353.323 492.58 351.787 489.738 347.884L489.647 347.759L491.485 328.467L475.134 337.544C474.795 337.732 474.407 337.811 474.021 337.772C473.635 337.732 473.271 337.575 472.977 337.321C472.684 337.068 472.475 336.731 472.379 336.355C472.284 335.979 472.306 335.583 472.442 335.22L492.834 281.066L506.299 236.952C506.966 233.421 508.691 230.177 511.243 227.648C513.796 225.119 517.057 223.425 520.594 222.79V222.79C532.588 220.587 539.732 224.634 547.981 233.616C549.976 235.801 551.446 238.413 552.277 241.253C553.109 244.092 553.28 247.085 552.779 250.001L544.975 294.604L547.268 334.595C547.443 335.284 547.396 336.011 547.133 336.672C546.871 337.333 546.405 337.894 545.805 338.275C539.426 342.334 519.869 353.321 502.511 353.323Z" fill="#923D41"/>
<path d="M529.799 216.111C540.97 216.111 550.026 207.055 550.026 195.884C550.026 184.713 540.97 175.657 529.799 175.657C518.628 175.657 509.572 184.713 509.572 195.884C509.572 207.055 518.628 216.111 529.799 216.111Z" fill="#FFB8B8"/>
<path d="M535.068 340.065C536.168 339.561 537.145 338.821 537.929 337.898C538.712 336.976 539.284 335.892 539.604 334.725C539.924 333.557 539.983 332.333 539.779 331.14C539.575 329.947 539.111 328.813 538.421 327.818L555.769 304.046L540.493 303.321L526.361 326.007C524.767 327.277 523.694 329.087 523.345 331.096C522.997 333.104 523.397 335.17 524.47 336.903C525.543 338.636 527.215 339.915 529.168 340.498C531.121 341.081 533.22 340.927 535.068 340.065V340.065Z" fill="#FFB8B8"/>
<path d="M544.463 326.651C543.617 326.771 542.756 326.566 542.054 326.078L530.57 318.069C529.88 317.592 529.393 316.873 529.206 316.054C529.019 315.236 529.144 314.377 529.558 313.646L550.003 277.27L529.44 252.518C528.361 251.219 527.563 249.708 527.099 248.083C526.635 246.459 526.514 244.755 526.744 243.081C526.974 241.407 527.55 239.799 528.436 238.36C529.321 236.92 530.497 235.681 531.887 234.721C533.278 233.761 534.853 233.101 536.512 232.782C538.172 232.464 539.88 232.495 541.527 232.873C543.174 233.25 544.724 233.967 546.079 234.977C547.434 235.986 548.564 237.267 549.397 238.737L572.102 278.811C572.263 279.096 572.347 279.418 572.347 279.746C572.346 280.073 572.262 280.395 572.101 280.68L546.921 324.976C546.689 325.384 546.374 325.74 545.996 326.019C545.619 326.299 545.188 326.497 544.73 326.601C544.641 326.622 544.552 326.638 544.463 326.651Z" fill="#923D41"/>
<path d="M521.716 193.302C519.714 191.808 516.943 192.041 514.571 191.258C513.158 190.791 511.893 189.962 510.903 188.852C509.912 187.743 509.231 186.393 508.927 184.937C508.623 183.481 508.707 181.971 509.171 180.558C509.634 179.145 510.462 177.878 511.569 176.886C514.131 174.59 517.776 174.069 521.19 173.649C525.867 173.074 530.59 172.497 535.28 172.955C539.97 173.412 544.692 174.997 548.12 178.23C551.9 181.795 553.761 187.102 553.773 192.298C553.642 197.518 552.209 202.623 549.605 207.149C548.8 208.869 547.586 210.366 546.07 211.509C544.492 212.551 542.269 212.823 540.75 211.698C539.436 210.726 538.956 209.024 538.362 207.501C537.769 205.979 536.757 204.357 535.14 204.123C533.058 203.82 531.469 205.937 529.482 206.63C526.703 207.599 523.616 205.456 522.483 202.74C521.349 200.024 521.648 196.951 521.966 194.025" fill="#2F2E41"/>
<path d="M321.58 258.588C327.493 258.588 332.286 253.794 332.286 247.882C332.286 241.969 327.493 237.176 321.58 237.176C315.667 237.176 310.874 241.969 310.874 247.882C310.874 253.794 315.667 258.588 321.58 258.588Z" fill="#923D41"/>
<path d="M472.302 130.826C467.831 136.785 448.199 143.758 442.557 145.668C442.387 145.726 442.205 145.741 442.027 145.713C441.85 145.685 441.682 145.614 441.538 145.506C441.394 145.398 441.278 145.256 441.201 145.093C441.125 144.931 441.088 144.752 441.096 144.572C441.353 138.621 442.559 117.823 447.03 111.864C449.545 108.513 453.288 106.298 457.435 105.706C461.583 105.114 465.796 106.195 469.148 108.709C472.499 111.224 474.714 114.967 475.306 119.115C475.897 123.262 474.817 127.475 472.302 130.826V130.826Z" fill="#F2F2F2"/>
<path d="M460.332 128.496C464.771 128.496 468.369 124.897 468.369 120.459C468.369 116.02 464.771 112.421 460.332 112.421C455.893 112.421 452.294 116.02 452.294 120.459C452.294 124.897 455.893 128.496 460.332 128.496Z" fill="white"/>
<path d="M436.712 155.54C438.701 155.54 440.314 153.927 440.314 151.938C440.314 149.948 438.701 148.335 436.712 148.335C434.722 148.335 433.109 149.948 433.109 151.938C433.109 153.927 434.722 155.54 436.712 155.54Z" fill="#F2F2F2"/>
<path d="M80.4399 294.28C87.0193 304.332 86.809 337.927 86.607 347.53C86.6012 347.82 86.5247 348.104 86.3841 348.358C86.2435 348.612 86.0432 348.828 85.8004 348.987C85.5576 349.146 85.2797 349.243 84.9907 349.27C84.7018 349.298 84.4106 349.254 84.1424 349.143C75.2608 345.485 44.3884 332.235 37.8091 322.183C35.9744 319.384 34.7092 316.25 34.0859 312.962C33.4625 309.674 33.4933 306.295 34.1763 303.019C34.8593 299.742 36.1812 296.632 38.0665 293.867C39.9518 291.102 42.3636 288.735 45.1639 286.902C47.9642 285.069 51.0983 283.806 54.387 283.185C57.6757 282.564 61.0545 282.597 64.3305 283.282C67.6065 283.967 70.7154 285.291 73.4795 287.178C76.2436 289.065 78.6088 291.478 80.4399 294.28V294.28Z" fill="#F2F2F2"/>
<path d="M58.1454 319.697C65.3036 319.697 71.1065 313.894 71.1065 306.735C71.1065 299.577 65.3036 293.774 58.1454 293.774C50.9872 293.774 45.1843 299.577 45.1843 306.735C45.1843 313.894 50.9872 319.697 58.1454 319.697Z" fill="white"/>
<path d="M92.902 365.647C96.1109 365.647 98.7122 363.046 98.7122 359.837C98.7122 356.628 96.1109 354.027 92.902 354.027C89.6932 354.027 87.0919 356.628 87.0919 359.837C87.0919 363.046 89.6932 365.647 92.902 365.647Z" fill="#F2F2F2"/>
</svg>
